<svg width="142" height="142" viewBox="0 0 142 142" fill="none" xmlns="http://www.w3.org/2000/svg">
<rect y="70.7107" width="100" height="100" rx="15" transform="rotate(-45 0 70.7107)" fill="#6366F1"/>
<path d="M100.734 41.3647C101.029 41.8056 101.165 42.3334 101.121 42.8619C101.077 43.3903 100.855 43.8882 100.491 44.2742L80.8249 65.1782L94.8075 72.0423C95.2185 72.2438 95.5615 72.5613 95.7941 72.9556C96.0267 73.3498 96.1388 73.8036 96.1165 74.2608C96.0942 74.718 95.9385 75.1587 95.6686 75.5284C95.3987 75.8981 95.0265 76.1808 94.5978 76.3414L43.3773 95.5829C42.8816 95.7693 42.3373 95.7824 41.8332 95.6199C41.3291 95.4574 40.8949 95.129 40.6013 94.6881C40.3078 94.2472 40.1722 93.7199 40.2168 93.1922C40.2613 92.6644 40.4833 92.1672 40.8465 91.7818L60.5149 70.8736L46.5323 64.0095C46.1213 63.8079 45.7783 63.4904 45.5457 63.0962C45.3131 62.7019 45.201 62.2482 45.2233 61.791C45.2456 61.3338 45.4013 60.8931 45.6712 60.5233C45.9411 60.1536 46.3133 59.871 46.742 59.7104L97.9625 40.4689C98.4576 40.2827 99.0011 40.2694 99.5047 40.4313C100.008 40.5932 100.442 40.9207 100.736 41.3605L100.734 41.3647Z" fill="#EBEBFF"/>
<path d="M69.7674 25.1847H72.7731L74.2841 27.1286L75.7706 28.8601L78.5721 32.3722H75.2724L73.3448 30.0036L72.3565 28.5987L69.7674 25.1847ZM78.8253 22.6364C78.8253 24.4605 78.4795 26.0123 77.788 27.2919C77.1019 28.5715 76.1654 29.5489 74.9783 30.2241C73.7968 30.8938 72.4682 31.2287 70.9925 31.2287C69.506 31.2287 68.172 30.8911 66.9904 30.2159C65.8088 29.5407 64.875 28.5633 64.1889 27.2837C63.5028 26.0041 63.1598 24.455 63.1598 22.6364C63.1598 20.8123 63.5028 19.2604 64.1889 17.9808C64.875 16.7012 65.8088 15.7266 66.9904 15.0568C68.172 14.3816 69.506 14.044 70.9925 14.044C72.4682 14.044 73.7968 14.3816 74.9783 15.0568C76.1654 15.7266 77.1019 16.7012 77.788 17.9808C78.4795 19.2604 78.8253 20.8123 78.8253 22.6364ZM75.2397 22.6364C75.2397 21.4548 75.0627 20.4583 74.7088 19.647C74.3603 18.8357 73.8675 18.2204 73.2305 17.8011C72.5934 17.3819 71.8474 17.1722 70.9925 17.1722C70.1377 17.1722 69.3917 17.3819 68.7546 17.8011C68.1175 18.2204 67.622 18.8357 67.2681 19.647C66.9196 20.4583 66.7454 21.4548 66.7454 22.6364C66.7454 23.8179 66.9196 24.8144 67.2681 25.6257C67.622 26.437 68.1175 27.0523 68.7546 27.4716C69.3917 27.8909 70.1377 28.1005 70.9925 28.1005C71.8474 28.1005 72.5934 27.8909 73.2305 27.4716C73.8675 27.0523 74.3603 26.437 74.7088 25.6257C75.0627 24.8144 75.2397 23.8179 75.2397 22.6364Z" fill="#EBEBFF"/>
<path d="M64.4538 127V110.273H71.0533C72.3165 110.273 73.3947 110.499 74.2876 110.951C75.1861 111.397 75.8694 112.031 76.3377 112.854C76.8114 113.67 77.0483 114.632 77.0483 115.737C77.0483 116.848 76.8087 117.803 76.3295 118.604C75.8504 119.399 75.1561 120.009 74.2468 120.433C73.3429 120.858 72.2485 121.07 70.9634 121.07H66.5447V118.228H70.3917C71.0669 118.228 71.6277 118.135 72.0742 117.95C72.5207 117.765 72.8529 117.487 73.0707 117.117C73.2939 116.747 73.4055 116.287 73.4055 115.737C73.4055 115.181 73.2939 114.713 73.0707 114.332C72.8529 113.951 72.518 113.662 72.0661 113.466C71.6196 113.265 71.056 113.164 70.3754 113.164H67.9904V127H64.4538ZM73.4872 119.388L77.6445 127H73.7404L69.6729 119.388H73.4872Z" fill="#EBEBFF"/>
</svg>
