<svg width="157" height="142" viewBox="0 0 157 142" fill="none" xmlns="http://www.w3.org/2000/svg">
<rect x="15" y="70.7107" width="100" height="100" rx="15" transform="rotate(-45 15 70.7107)" fill="#EBEBFF"/>
<rect x="8" y="70.7107" width="100" height="100" rx="15" transform="rotate(-45 8 70.7107)" fill="#CECEF5"/>
<rect y="70.7107" width="100" height="100" rx="15" transform="rotate(-45 0 70.7107)" fill="#6366F1"/>
<path d="M100.734 44.3648C101.029 44.8057 101.165 45.3335 101.121 45.8619C101.077 46.3904 100.855 46.8882 100.491 47.2742L80.8249 68.1782L94.8075 75.0423C95.2185 75.2439 95.5615 75.5614 95.7941 75.9556C96.0267 76.3498 96.1388 76.8036 96.1165 77.2608C96.0942 77.718 95.9385 78.1587 95.6686 78.5284C95.3987 78.8982 95.0265 79.1808 94.5978 79.3414L43.3773 98.5829C42.8816 98.7694 42.3373 98.7824 41.8332 98.6199C41.3291 98.4575 40.8949 98.129 40.6013 97.6881C40.3078 97.2473 40.1722 96.72 40.2168 96.1922C40.2613 95.6644 40.4833 95.1673 40.8465 94.7818L60.5149 73.8736L46.5323 67.0095C46.1213 66.8079 45.7783 66.4904 45.5457 66.0962C45.3131 65.702 45.201 65.2482 45.2233 64.791C45.2456 64.3338 45.4013 63.8931 45.6712 63.5234C45.9411 63.1536 46.3133 62.871 46.742 62.7104L97.9625 43.4689C98.4576 43.2827 99.0011 43.2695 99.5047 43.4314C100.008 43.5932 100.442 43.9207 100.736 44.3605L100.734 44.3648Z" fill="#EBEBFF"/>
</svg>
