<svg width="527" height="142" viewBox="0 0 527 142" fill="none" xmlns="http://www.w3.org/2000/svg">
<rect x="15" y="70.7107" width="100" height="100" rx="15" transform="rotate(-45 15 70.7107)" fill="#EBEBFF"/>
<rect x="8" y="70.7107" width="100" height="100" rx="15" transform="rotate(-45 8 70.7107)" fill="#CECEF5"/>
<rect y="70.7107" width="100" height="100" rx="15" transform="rotate(-45 0 70.7107)" fill="#6366F1"/>
<path d="M100.734 44.3648C101.029 44.8057 101.165 45.3335 101.121 45.8619C101.077 46.3904 100.855 46.8882 100.491 47.2742L80.8249 68.1782L94.8075 75.0423C95.2185 75.2439 95.5615 75.5614 95.7941 75.9556C96.0267 76.3498 96.1388 76.8036 96.1165 77.2608C96.0942 77.718 95.9385 78.1587 95.6686 78.5284C95.3987 78.8982 95.0265 79.1808 94.5978 79.3414L43.3773 98.5829C42.8816 98.7694 42.3373 98.7824 41.8332 98.6199C41.3291 98.4575 40.8949 98.129 40.6013 97.6881C40.3078 97.2473 40.1722 96.72 40.2168 96.1922C40.2613 95.6644 40.4833 95.1673 40.8465 94.7818L60.5149 73.8736L46.5323 67.0095C46.1213 66.8079 45.7783 66.4904 45.5457 66.0962C45.3131 65.702 45.201 65.2482 45.2233 64.791C45.2456 64.3338 45.4013 63.8931 45.6712 63.5234C45.9411 63.1536 46.3133 62.871 46.742 62.7104L97.9625 43.4689C98.4576 43.2827 99.0011 43.2695 99.5047 43.4314C100.008 43.5932 100.442 43.9207 100.736 44.3605L100.734 44.3648Z" fill="#EBEBFF"/>
<path d="M183.048 62.304C184.344 60.192 186.024 58.536 188.088 57.336C190.2 56.136 192.6 55.536 195.288 55.536V66.12H192.624C189.456 66.12 187.056 66.864 185.424 68.352C183.84 69.84 183.048 72.432 183.048 76.128V96H172.968V56.112H183.048V62.304ZM239.157 75.192C239.157 76.632 239.061 77.928 238.869 79.08H209.709C209.949 81.96 210.957 84.216 212.733 85.848C214.509 87.48 216.693 88.296 219.285 88.296C223.029 88.296 225.693 86.688 227.277 83.472H238.149C236.997 87.312 234.789 90.48 231.525 92.976C228.261 95.424 224.253 96.648 219.501 96.648C215.661 96.648 212.205 95.808 209.133 94.128C206.109 92.4 203.733 89.976 202.005 86.856C200.325 83.736 199.485 80.136 199.485 76.056C199.485 71.928 200.325 68.304 202.005 65.184C203.685 62.064 206.037 59.664 209.061 57.984C212.085 56.304 215.565 55.464 219.501 55.464C223.293 55.464 226.677 56.28 229.653 57.912C232.677 59.544 235.005 61.872 236.637 64.896C238.317 67.872 239.157 71.304 239.157 75.192ZM228.717 72.312C228.669 69.72 227.733 67.656 225.909 66.12C224.085 64.536 221.853 63.744 219.213 63.744C216.717 63.744 214.605 64.512 212.877 66.048C211.197 67.536 210.165 69.624 209.781 72.312H228.717ZM261.779 96.648C258.515 96.648 255.587 96.072 252.995 94.92C250.403 93.72 248.339 92.112 246.803 90.096C245.315 88.08 244.499 85.848 244.355 83.4H254.507C254.699 84.936 255.443 86.208 256.739 87.216C258.083 88.224 259.739 88.728 261.707 88.728C263.627 88.728 265.115 88.344 266.171 87.576C267.275 86.808 267.827 85.824 267.827 84.624C267.827 83.328 267.155 82.368 265.811 81.744C264.515 81.072 262.427 80.352 259.547 79.584C256.571 78.864 254.123 78.12 252.203 77.352C250.331 76.584 248.699 75.408 247.307 73.824C245.963 72.24 245.291 70.104 245.291 67.416C245.291 65.208 245.915 63.192 247.163 61.368C248.459 59.544 250.283 58.104 252.635 57.048C255.035 55.992 257.843 55.464 261.059 55.464C265.811 55.464 269.603 56.664 272.435 59.064C275.267 61.416 276.827 64.608 277.115 68.64H267.467C267.323 67.056 266.651 65.808 265.451 64.896C264.299 63.936 262.739 63.456 260.771 63.456C258.947 63.456 257.531 63.792 256.523 64.464C255.563 65.136 255.083 66.072 255.083 67.272C255.083 68.616 255.755 69.648 257.099 70.368C258.443 71.04 260.531 71.736 263.363 72.456C266.243 73.176 268.619 73.92 270.491 74.688C272.363 75.456 273.971 76.656 275.315 78.288C276.707 79.872 277.427 81.984 277.475 84.624C277.475 86.928 276.827 88.992 275.531 90.816C274.283 92.64 272.459 94.08 270.059 95.136C267.707 96.144 264.947 96.648 261.779 96.648ZM323.405 56.112V96H313.253V90.96C311.957 92.688 310.253 94.056 308.141 95.064C306.077 96.024 303.821 96.504 301.373 96.504C298.253 96.504 295.493 95.856 293.093 94.56C290.693 93.216 288.797 91.272 287.405 88.728C286.061 86.136 285.389 83.064 285.389 79.512V56.112H295.469V78.072C295.469 81.24 296.261 83.688 297.845 85.416C299.429 87.096 301.589 87.936 304.325 87.936C307.109 87.936 309.293 87.096 310.877 85.416C312.461 83.688 313.253 81.24 313.253 78.072V56.112H323.405ZM382.887 55.536C387.783 55.536 391.719 57.048 394.695 60.072C397.719 63.048 399.231 67.224 399.231 72.6V96H389.151V73.968C389.151 70.848 388.359 68.472 386.775 66.84C385.191 65.16 383.031 64.32 380.295 64.32C377.559 64.32 375.375 65.16 373.743 66.84C372.159 68.472 371.367 70.848 371.367 73.968V96H361.287V73.968C361.287 70.848 360.495 68.472 358.911 66.84C357.327 65.16 355.167 64.32 352.431 64.32C349.647 64.32 347.439 65.16 345.807 66.84C344.223 68.472 343.431 70.848 343.431 73.968V96H333.351V56.112H343.431V60.936C344.727 59.256 346.383 57.936 348.399 56.976C350.463 56.016 352.719 55.536 355.167 55.536C358.287 55.536 361.071 56.208 363.519 57.552C365.967 58.848 367.863 60.72 369.207 63.168C370.503 60.864 372.375 59.016 374.823 57.624C377.319 56.232 380.007 55.536 382.887 55.536ZM445.876 75.192C445.876 76.632 445.78 77.928 445.588 79.08H416.428C416.668 81.96 417.676 84.216 419.452 85.848C421.228 87.48 423.412 88.296 426.004 88.296C429.748 88.296 432.412 86.688 433.996 83.472H444.868C443.716 87.312 441.508 90.48 438.244 92.976C434.98 95.424 430.972 96.648 426.22 96.648C422.38 96.648 418.924 95.808 415.852 94.128C412.828 92.4 410.452 89.976 408.724 86.856C407.044 83.736 406.204 80.136 406.204 76.056C406.204 71.928 407.044 68.304 408.724 65.184C410.404 62.064 412.756 59.664 415.78 57.984C418.804 56.304 422.284 55.464 426.22 55.464C430.012 55.464 433.396 56.28 436.372 57.912C439.396 59.544 441.724 61.872 443.356 64.896C445.036 67.872 445.876 71.304 445.876 75.192ZM435.436 72.312C435.388 69.72 434.452 67.656 432.628 66.12C430.804 64.536 428.572 63.744 425.932 63.744C423.436 63.744 421.324 64.512 419.596 66.048C417.916 67.536 416.884 69.624 416.5 72.312H435.436ZM463.314 62.304C464.61 60.192 466.29 58.536 468.354 57.336C470.466 56.136 472.866 55.536 475.554 55.536V66.12H472.89C469.722 66.12 467.322 66.864 465.69 68.352C464.106 69.84 463.314 72.432 463.314 76.128V96H453.234V56.112H463.314V62.304ZM479.751 75.912C479.751 71.88 480.543 68.304 482.127 65.184C483.759 62.064 485.943 59.664 488.679 57.984C491.463 56.304 494.559 55.464 497.967 55.464C500.943 55.464 503.535 56.064 505.743 57.264C507.999 58.464 509.799 59.976 511.143 61.8V56.112H521.295V96H511.143V90.168C509.847 92.04 508.047 93.6 505.743 94.848C503.487 96.048 500.871 96.648 497.895 96.648C494.535 96.648 491.463 95.784 488.679 94.056C485.943 92.328 483.759 89.904 482.127 86.784C480.543 83.616 479.751 79.992 479.751 75.912ZM511.143 76.056C511.143 73.608 510.663 71.52 509.703 69.792C508.743 68.016 507.447 66.672 505.815 65.76C504.183 64.8 502.431 64.32 500.559 64.32C498.687 64.32 496.959 64.776 495.375 65.688C493.791 66.6 492.495 67.944 491.487 69.72C490.527 71.448 490.047 73.512 490.047 75.912C490.047 78.312 490.527 80.424 491.487 82.248C492.495 84.024 493.791 85.392 495.375 86.352C497.007 87.312 498.735 87.792 500.559 87.792C502.431 87.792 504.183 87.336 505.815 86.424C507.447 85.464 508.743 84.12 509.703 82.392C510.663 80.616 511.143 78.504 511.143 76.056Z" fill="#6366F1"/>
</svg>
