<svg width="142" height="142" viewBox="0 0 142 142" fill="none" xmlns="http://www.w3.org/2000/svg">
<rect x="0.289307" y="71" width="100" height="100" rx="15" transform="rotate(-45 0.289307 71)" fill="#6366F1"/>
<rect x="14.4142" y="70.566" width="79.4107" height="79.4107" rx="14" transform="rotate(-45 14.4142 70.566)" stroke="#EBEBFF" stroke-width="2"/>
<path d="M70.25 47.5937C73.5625 47.5937 76.3542 47.8437 78.625 48.3437C80.8958 48.8437 82.7292 49.5521 84.125 50.4687C85.5208 51.3854 86.5208 52.5 87.125 53.8125C87.7292 55.1042 88.0312 56.5417 88.0312 58.125C88.0312 59.5 87.8125 60.8021 87.375 62.0312C86.9583 63.2604 86.3229 64.375 85.4688 65.375C84.6146 66.375 83.5417 67.2396 82.25 67.9687C80.9792 68.6771 79.4792 69.2187 77.75 69.5937V69.7187C79.1875 70.0521 80.3646 70.5417 81.2812 71.1875C82.2188 71.8333 82.9688 72.625 83.5312 73.5625C84.1146 74.5 84.5625 75.5729 84.875 76.7812C85.2083 77.9687 85.5 79.2812 85.75 80.7187C86 82.1979 86.2188 83.5521 86.4062 84.7812C86.6146 85.9896 86.8854 87.0417 87.2188 87.9375C87.5521 88.8125 88 89.5 88.5625 90C89.1458 90.4792 89.9479 90.7187 90.9688 90.7187C91.1562 90.7187 91.4167 90.7083 91.75 90.6875C92.1042 90.6667 92.4896 90.625 92.9062 90.5625V92.9687C92.5521 93.0521 92.1667 93.125 91.75 93.1875C91.3333 93.25 90.9062 93.2917 90.4688 93.3125C90.0521 93.3542 89.6354 93.375 89.2188 93.375C88.8229 93.3958 88.4688 93.4062 88.1562 93.4062C86.3438 93.4062 84.9167 93.2187 83.875 92.8437C82.8542 92.4479 82.0625 91.8437 81.5 91.0312C80.9583 90.2187 80.5729 89.1979 80.3438 87.9687C80.1146 86.7396 79.8958 85.2812 79.6875 83.5937C79.375 81.1354 79.0625 79.0729 78.75 77.4062C78.4375 75.7396 78 74.4062 77.4375 73.4062C76.875 72.3854 76.1146 71.6667 75.1562 71.25C74.1979 70.8125 72.8958 70.5937 71.25 70.5937H65.375V90.5H71.9375V93H53.0312V90.5H59.2812V50.0937H53.0312V47.5937H70.25ZM65.375 68.0937H69.5312C71.7812 68.0937 73.6562 67.9062 75.1562 67.5312C76.6771 67.1562 77.8958 66.5729 78.8125 65.7812C79.75 64.9687 80.4062 63.9479 80.7812 62.7187C81.1771 61.4687 81.375 59.9687 81.375 58.2187C81.375 56.7604 81.2188 55.5208 80.9062 54.5C80.5938 53.4583 80.0104 52.6146 79.1562 51.9687C78.3229 51.3229 77.1562 50.8542 75.6562 50.5625C74.1771 50.25 72.25 50.0937 69.875 50.0937H65.375V68.0937Z" fill="#EBEBFF"/>
</svg>
